<?xml version="1.0" encoding="utf-8"?>
<!-- Generator: Adobe Illustrator 23.0.1, SVG Export Plug-In . SVG Version: 6.00 Build 0)  -->
<svg version="1.1" id="Layer_1" xmlns="http://www.w3.org/2000/svg" xmlns:xlink="http://www.w3.org/1999/xlink" x="0px" y="0px"
	 viewBox="0 0 405.5 94.5" style="enable-background:new 0 0 405.5 94.5;" xml:space="preserve">
<style type="text/css">
	.st0{fill:#FF2C00;}
</style>
<g>
	<polygon class="st0" points="80.7,29.2 77.5,24.2 96.4,9.9 101.3,18.2 	"/>
	<path class="st0" d="M26.9,84.6C12,84.6,0,72.9,0,58.3c0-14.8,11.6-26.4,26.5-26.4c11.5,0,21.4,6.5,25.4,18H38.3
		C35.8,45.3,32,43,26.5,43c-8.4,0-14.4,6.4-14.4,15.2s6.3,15.4,14.6,15.4c5,0,8.5-2,11.5-6.6h13.6C47.7,78.2,38.6,84.6,26.9,84.6z"
		/>
	<path class="st0" d="M94.8,33.1v6.7c-4.2-5.5-9.2-7.9-16.5-7.9c-14.9,0-25.6,11.2-25.6,26.5c0,15.2,10.6,26.2,25.4,26.2
		c7.1,0,11.9-2.3,16.7-7.7v6.5h11.1V33.1H94.8z M79.8,73.5c-8.8,0-14.9-6-14.9-14.8C64.9,49.5,71,43,79.6,43s14.8,6.5,14.8,15.6
		C94.4,67,89,73.5,79.8,73.5z"/>
	<path class="st0" d="M142,83.4V58.8c0-13.5-3.6-15.8-9.6-15.8c-3.8,0-7,1.6-8.9,4.6c-1.5,2.5-2,5.4-2,12.1v23.7h-12.1V33.1h11.2
		v4.8c4.5-4.3,8.5-6,14.2-6c7,0,12.5,2.5,15.7,7.3c2.7,3.9,3.6,8.3,3.6,17.3v27L142,83.4L142,83.4z"/>
	<path class="st0" d="M232.3,84.6c-14.9,0-26.9-11.7-26.9-26.4c0-14.8,11.6-26.4,26.5-26.4c11.5,0,21.4,6.5,25.4,18h-13.6
		c-2.5-4.6-6.3-6.9-11.7-6.9c-8.4,0-14.4,6.4-14.4,15.2s6.3,15.4,14.6,15.4c5,0,8.5-2,11.5-6.6h13.6C253.1,78.2,244,84.6,232.3,84.6
		z"/>
	<path class="st0" d="M300.2,83.4v-6.5c-4.8,5.5-9.6,7.7-16.7,7.7c-14.7,0-25.4-11-25.4-26.2c0-15.4,10.7-26.5,25.6-26.5
		c7.3,0,12.3,2.4,16.5,7.9v-6.7h11.1v50.4L300.2,83.4L300.2,83.4z M285,43c-8.6,0-14.7,6.5-14.7,15.7c0,8.8,6.1,14.8,14.9,14.8
		c9.2,0,14.6-6.5,14.6-14.9C299.8,49.4,293.6,43,285,43z"/>
	<path class="st0" d="M378.2,83.4V55.8c0-10.1-3.8-12.8-9.5-12.8c-6.7,0-10.2,3.6-10.2,15.6v24.8h-12.1V55.8
		c0-9.9-3.5-12.8-9.8-12.8c-7,0-9.8,3.7-9.8,15.6v24.8h-12.1V33.1h11.1v4.7c3.5-4.3,7.2-5.9,13.1-5.9c6.9,0,11.4,2.4,14.8,7.8
		c4.1-5.5,9.1-7.8,16.2-7.8c13.3,0,20.4,7.4,20.4,22.4v29.1H378.2z"/>
	<path class="st0" d="M183.4,31.8c-5.2,0-9.2,1.5-12.8,4.7V17l-12.1,6.4v60.1h12.1V57.9c0-11.1,3.7-14.9,10.6-14.9
		c7.1,0,9.8,4.2,9.8,14.7v25.7h12.1V55C203.1,38.4,195.5,31.8,183.4,31.8z"/>
	<g>
		<path class="st0" d="M394.1,33.5h-1.8v-1.6h5.3v1.6h-1.8v5H394L394.1,33.5L394.1,33.5z"/>
		<path class="st0" d="M398.2,31.9h1.5l2.1,3l2.2-3h1.5v6.6h-1.7V35l-2,2.7l-2-2.7v3.5h-1.7v-6.6H398.2z"/>
	</g>
</g>
</svg>
